<svg width="24" height="24" viewBox="0 0 24 24" fill="none" xmlns="http://www.w3.org/2000/svg">
<g clip-path="url(#clip0_1749_148166)">
<path d="M2.78905 20.0002H21.2199C23.0763 20.0002 24 19.0974 24 17.309V6.70885C24 4.92046 23.0763 4.01758 21.2199 4.01758H2.78905C0.932643 4.01758 0 4.91177 0 6.70885V17.309C0 19.1061 0.932643 20.0002 2.78905 20.0002ZM2.80681 18.6025C1.91858 18.6025 1.43006 18.1424 1.43006 17.2396V6.7783C1.43006 5.87543 1.91858 5.41531 2.80681 5.41531H21.1932C22.0726 5.41531 22.57 5.87543 22.57 6.7783V17.2396C22.57 18.1424 22.0726 18.6025 21.1932 18.6025H2.80681ZM0 15.8678H3.62399C4.80533 15.8678 5.48927 15.1994 5.48927 14.0621V9.94705C5.48927 8.80978 4.80533 8.1413 3.62399 8.1413H0V9.3654H3.6151C4.00593 9.3654 4.23686 9.59111 4.23686 9.98179V14.0274C4.23686 14.4181 4.00593 14.6438 3.6151 14.6438H0V15.8678ZM11.3516 18.8283H12.604V5.18958H11.3516V18.8283ZM11.9645 16.1023C14.4693 16.1023 16.1924 14.4354 16.1658 12.0046C16.148 9.60847 14.4337 7.93295 11.9645 7.91558C9.50406 7.88954 7.78979 9.55639 7.78979 12.0046C7.78979 14.4354 9.50406 16.1023 11.9645 16.1023ZM11.9734 14.9389C10.2147 14.9389 8.97114 13.7235 8.97114 11.9959C8.97114 10.277 10.2147 9.0789 11.9734 9.0789C13.7498 9.0789 14.9934 10.277 14.9845 11.9959C14.9755 13.7235 13.7321 14.9389 11.9734 14.9389ZM24 15.8678V14.6438H20.3849C20.003 14.6438 19.7721 14.4181 19.7721 14.0274V9.98179C19.7721 9.59111 20.003 9.3654 20.3849 9.3654H24V8.1413H20.376C19.1947 8.1413 18.5196 8.80978 18.5196 9.94705V14.0621C18.5196 15.1994 19.1947 15.8678 20.376 15.8678H24Z" fill="#667080"/>
</g>
<defs>
<clipPath id="clip0_1749_148166">
<rect width="24" height="16" fill="white" transform="translate(0 4)"/>
</clipPath>
</defs>
</svg>
