<?xml version="1.0" standalone="no"?>
<!DOCTYPE svg PUBLIC "-//W3C//DTD SVG 1.1//EN" "http://www.w3.org/Graphics/SVG/1.1/DTD/svg11.dtd">
<svg xmlns="http://www.w3.org/2000/svg">
<metadata>Copyright (C) 2023 by original authors @ fontello.com</metadata>
<defs>
<font id="coala" horiz-adv-x="1000" >
<font-face font-family="coala" font-weight="400" font-stretch="normal" units-per-em="1000" ascent="850" descent="-150" />
<missing-glyph horiz-adv-x="1000" />
<glyph glyph-name="info" unicode="&#xe800;" d="M498-63c227 0 415 188 415 415 0 227-188 415-415 415-227 0-415-188-415-415 0-227 189-415 415-415z m0 69c-192 0-345 154-345 346 0 192 153 346 345 346 192 0 346-154 346-346 0-192-154-346-346-346z m-71 118h166c17 0 30 12 30 29 0 16-13 28-30 28h-51v207c0 22-11 37-31 37h-77c-17 0-30-13-30-29 0-16 13-28 30-28h44v-187h-51c-16 0-29-12-29-28 0-17 13-29 29-29z m68 368c29 0 53 24 53 54 0 29-24 53-53 53-30 0-53-24-53-53 0-30 23-54 53-54z" horiz-adv-x="1000" />

<glyph glyph-name="card" unicode="&#xe801;" d="M217 153h95c23 0 39 16 39 38v72c0 22-16 37-39 37h-95c-23 0-38-15-38-37v-72c0-22 15-38 38-38z m-144 286h854v89h-854v-89z m91-422h672c82 0 122 40 122 120v425c0 80-40 121-122 121h-672c-81 0-122-41-122-121v-425c0-80 41-120 122-120z m1 63c-39 0-60 20-60 61v418c0 40 21 61 60 61h670c38 0 61-21 61-61v-418c0-41-23-61-61-61h-670z" horiz-adv-x="1000" />

<glyph glyph-name="help" unicode="&#xe802;" d="M498-63c227 0 415 188 415 415 0 227-188 415-415 415-227 0-415-188-415-415 0-227 189-415 415-415z m0 69c-192 0-345 154-345 346 0 192 153 346 345 346 192 0 346-154 346-346 0-192-154-346-346-346z m-8 261c20 0 33 13 33 29 0 2 0 4 0 5 0 23 13 38 41 56 40 26 68 50 68 99 0 67-60 104-130 104-69 0-115-33-126-71-2-6-4-13-4-20 0-18 15-28 28-28 14 0 23 7 30 16l7 10c15 24 36 38 63 38 37 0 61-21 61-52 0-28-17-42-52-66-30-21-52-42-52-82 0-2 0-4 0-5 0-22 12-33 33-33z m-1-121c24 0 44 19 44 43 0 23-20 42-44 42-24 0-44-19-44-42 0-24 20-43 44-43z" horiz-adv-x="1000" />

<glyph glyph-name="notifications" unicode="&#xe803;" d="M125 123c0-30 23-50 61-50h172c3-78 65-147 151-147 86 0 147 68 151 147h171c39 0 62 20 62 50 0 40-42 77-77 113-26 28-34 86-37 133-3 160-44 263-153 303-13 53-57 95-117 95-60 0-104-42-117-95-109-40-150-143-153-303-3-47-11-105-37-133-36-36-77-73-77-113z m79 12v5c7 11 32 35 53 59 29 33 43 85 47 164 3 178 56 235 125 254 11 2 16 7 17 18 1 42 25 72 63 72 38 0 62-30 63-72 1-11 6-16 16-18 70-19 123-76 126-254 4-79 18-131 47-164 21-24 45-48 53-59v-5h-610z m218-62h174c-3-55-38-90-87-90-49 0-84 35-87 90z" horiz-adv-x="1000" />

<glyph glyph-name="search" unicode="&#xe804;" d="M83 442c0-179 146-325 325-325 71 0 136 23 189 61l200-200c9-10 22-14 35-14 27 0 46 21 46 48 0 13-4 25-13 33l-199 200c42 55 67 123 67 197 0 179-146 325-325 325-179 0-325-146-325-325z m70 0c0 141 114 255 255 255 141 0 255-114 255-255 0-141-114-255-255-255-141 0-255 114-255 255z" horiz-adv-x="1000" />

<glyph glyph-name="arrow_noline_up" unicode="&#xe805;" d="M490 569c11 0 20-4 27-11l316-323c7-7 11-16 11-26 0-22-16-38-37-38-11 0-20 5-27 11l-290 296-289-296c-7-6-17-11-27-11-21 0-37 16-37 38 0 10 4 19 11 26l316 323c7 7 16 11 26 11z" horiz-adv-x="1000" />

<glyph glyph-name="arrow_noline_down" unicode="&#xe806;" d="M491 171c-10 0-19 4-27 12l-315 322c-8 7-11 16-11 27 0 21 16 37 37 37 10 0 19-4 26-11l290-296 290 296c7 7 16 11 26 11 21 0 37-16 37-37 0-11-4-20-10-27l-316-322c-8-8-17-12-27-12z" horiz-adv-x="1000" />

<glyph glyph-name="arrow_noline_left" unicode="&#xe807;" d="M292 330c0-10 3-19 11-27l323-315c7-7 16-11 26-11 21 0 38 16 38 37 0 11-5 20-11 26l-297 290 297 290c6 7 11 16 11 26 0 22-17 37-38 37-10 0-19-3-26-10l-323-316c-8-7-11-17-11-27z" horiz-adv-x="1000" />

<glyph glyph-name="arrow_noline_right" unicode="&#xe808;" d="M690 370c0-10-4-19-12-27l-322-315c-7-7-16-11-27-11-21 0-37 16-37 37 0 11 4 20 11 27l296 289-296 290c-7 7-11 16-11 26 0 22 16 38 37 38 11 0 20-4 27-11l322-316c8-7 12-17 12-27z" horiz-adv-x="1000" />

<glyph glyph-name="arrow_up" unicode="&#xe809;" d="M503 711c-10 0-19-5-27-13l-270-270c-8-8-11-17-11-26 0-20 14-36 35-36 9 0 19 3 25 10l93 91 147 161-20 9-8-131 0-515c0-21 15-36 36-36 21 0 36 15 36 36l0 515-8 131-20-9 147-161 93-91c6-7 16-10 25-10 21 0 35 16 35 36 0 9-3 18-12 27l-269 269c-7 8-17 13-27 13z" horiz-adv-x="1000" />

<glyph glyph-name="arrow_down" unicode="&#xe80a;" d="M503-45c10 0 19 5 27 13l270 270c7 8 11 17 11 27 0 19-15 35-35 35-10 0-19-3-26-10l-92-91-147-161 20-9 8 131 0 515c0 21-15 36-36 36-22 0-37-15-37-36l0-515 9-131 20 9-147 161-93 91c-7 7-16 10-26 10-20 0-35-16-35-35 0-10 3-19 12-28l269-269c8-8 17-13 28-13z" horiz-adv-x="1000" />

<glyph glyph-name="arrow_left" unicode="&#xe80b;" d="M125 333c0-10 5-19 13-27l270-270c8-7 17-11 26-11 20 0 36 15 36 35 0 10-4 19-10 25l-91 93-161 147-9-20 131-8h515c21 0 36 15 36 36 0 21-15 36-36 36h-515l-131-8 9-20 161 147 91 93c6 7 10 16 10 26 0 20-16 35-36 35-9 0-18-4-27-12l-269-269c-8-8-13-18-13-28z" horiz-adv-x="1000" />

<glyph glyph-name="arrow_right" unicode="&#xe80c;" d="M875 333c0-10-4-19-13-27l-270-270c-8-7-16-11-26-11-20 0-36 15-36 35 0 10 4 19 10 25l91 93 161 147 9-20-131-8h-515c-21 0-36 15-36 36 0 21 15 36 36 36h515l131-8-9-20-161 147-91 93c-6 7-10 16-10 26 0 20 16 35 36 35 10 0 18-4 27-12l269-269c9-8 13-18 13-28z" horiz-adv-x="1000" />

<glyph glyph-name="square_x" unicode="&#xe80d;" d="M497 329h-10l-7-9-88-125c-4-7-6-9-8-9 0-1-1-1-5-1-4 0-6 1-7 2-2 1-2 3-2 5 0 2 0 3 0 4 0 1 1 2 3 5l0 0 103 143 9 12-9 13-97 134c-3 3-4 5-4 7-1 1-1 2-1 4 0 4 4 10 11 10 4 0 6-1 7-2 1 0 3-2 7-8l86-125 7-9h11 2 11l6 9 85 125 0 0 0 1c4 5 6 7 7 8 1 0 2 1 5 1 8 0 11-5 11-8 0-2-1-4-4-9l0 0-1 0-103-140-9-13 9-12 103-140 0 0 0 0c3-4 3-6 3-8 0-4-1-5-2-7-1-1-4-2-9-2-3 0-4 0-5 1-1 0-4 2-8 9l-88 125-6 9h-11-2z m249-333h-493c-40 0-65 10-81 25-16 16-26 41-26 80v497c0 39 10 64 26 80 16 16 41 25 81 25h493c40 0 66-9 82-25 16-16 25-41 25-80v-497c0-38-9-64-25-79-16-16-42-26-82-26z m-576 109c0-25 6-47 22-63 16-16 38-22 62-22h492c23 0 45 6 61 22 16 16 22 38 22 63v490c0 25-6 47-22 62-16 16-38 23-61 23h-492c-24 0-46-7-62-23-16-15-22-37-22-62v-490z" horiz-adv-x="1000" />

<glyph glyph-name="signout" unicode="&#xe80e;" d="M40 681l0-662c0-85 42-127 126-127l406 0c84 0 126 42 126 127l0 90c0 18-14 33-32 33-18 0-33-15-33-33l0-88c0-41-22-64-64-64l-399 0c-43 0-64 23-64 64l0 659c0 40 21 63 64 63l399 0c42 0 64-23 64-63l0-89c0-18 15-33 33-33 18 0 32 15 32 33l0 90c0 85-42 127-126 127l-406 0c-84 0-126-42-126-127z m335-327c0-17 15-32 32-32l401 0 61 2-29-27-66-62c-6-6-9-14-9-22 0-17 12-30 29-30 8 0 15 4 21 10l132 138c9 8 11 15 11 23 0 8-2 15-11 24l-132 137c-6 7-13 10-21 10-17 0-29-12-29-30 0-7 3-16 9-22l66-61 29-28-61 2-401 0c-17 0-32-14-32-32z" horiz-adv-x="1000" />

<glyph glyph-name="class" unicode="&#xe80f;" d="M116 17h768c78 0 116 37 116 112v442c0 74-38 112-116 112h-768c-77 0-116-38-116-112v-442c0-75 39-112 116-112z m1 58c-37 0-57 19-57 57v436c0 37 20 56 57 56h766c37 0 57-19 57-56v-436c0-38-20-57-57-57h-766z m-117 114h151c49 0 78 28 78 75v172c0 47-29 75-78 75h-151v-51h151c16 0 26-10 26-26v-168c0-17-10-26-26-26h-151v-51z m473-123h52v568h-52v-568z m26 113c104 0 176 70 175 171-1 100-73 170-175 170-103 1-174-68-174-170 0-101 71-171 174-171z m0 49c-73 0-125 50-125 122 0 72 52 122 125 122 74 0 126-50 125-122 0-72-52-122-125-122z m501-39v51h-151c-15 0-25 9-25 26v168c0 16 10 26 25 26h151v51h-151c-49 0-77-28-77-75v-172c0-47 28-75 77-75h151z" horiz-adv-x="1000" />

<glyph glyph-name="cancel" unicode="&#xe810;" d="M259 67c12-11 32-11 43 0l219 219 218-219c12-11 32-12 44 0 11 12 11 32 0 43l-219 219 219 219c11 11 12 31 0 43-12 12-32 12-44 0l-218-219-219 219c-11 12-31 12-43 0-12-12-12-32 0-43l218-219-218-219c-12-11-12-31 0-43z" horiz-adv-x="1000" />

<glyph glyph-name="eye" unicode="&#xe811;" d="M42 350c0 0 166 333 458 333 292 0 458-333 458-333 0 0-166-333-458-333-292 0-458 333-458 333z m458-125c69 0 125 56 125 125 0 69-56 125-125 125-69 0-125-56-125-125 0-69 56-125 125-125z" horiz-adv-x="1000" />

<glyph glyph-name="send" unicode="&#xe812;" d="M598-67c27 0 47 24 61 60l247 645c7 17 11 33 11 45 0 25-15 40-40 40-13 0-28-4-46-11l-650-248c-31-12-56-31-56-59 0-34 27-46 63-57l273-80 79-269c11-38 23-66 58-66z m-120 392l-261 80c-6 2-8 3-8 6 0 3 1 4 7 7l511 193c30 11 59 26 87 39-25-20-56-45-76-65l-260-260z m126-309c-3 0-4 3-6 9l-80 260 260 259c20 21 46 52 66 78-13-29-29-58-40-88l-193-510c-3-5-4-8-7-8z" horiz-adv-x="1000" />

<glyph glyph-name="alert" unicode="&#xe813;" d="M885 350c0-213-172-385-385-385-213 0-385 172-385 385 0 213 172 385 385 385 213 0 385-172 385-385z m-385 167v-167m0-167h0" horiz-adv-x="1000" />

<glyph glyph-name="map" unicode="&#xe814;" d="M833 426c0-265-333-493-333-493 0 0-333 228-333 493 0 90 35 177 97 241 63 64 148 100 236 100 88 0 173-36 236-100 62-64 97-151 97-241z m-333-118c69 0 125 56 125 125 0 69-56 125-125 125-69 0-125-56-125-125 0-69 56-125 125-125z" horiz-adv-x="1000" />

<glyph glyph-name="edit" unicode="&#xe815;" d="M253-37h478c73 0 115 42 115 126v435l-65-65v-367c0-42-23-63-51-63h-476c-41 0-63 21-63 63v462c0 43 22 65 63 65h371l65 65h-437c-85 0-128-42-128-126v-469c0-84 43-126 128-126z m148 264l79 34 380 380-55 55-380-380-37-76c-3-7 5-17 13-13z m489 444l30 30c14 14 14 34 0 47l-10 10c-12 13-32 11-46-2l-29-29 55-56z" horiz-adv-x="1000" />

<glyph glyph-name="clock" unicode="&#xe816;" d="M286 306h214c16 0 28 12 28 29v275c0 16-12 28-28 28-16 0-29-12-29-28v-247h-185c-16 0-28-12-28-28 0-17 12-29 28-29z m214-372c228 0 417 189 417 416 0 228-189 417-417 417-228 0-417-189-417-417 0-227 190-416 417-416z m0 69c-193 0-347 155-347 347 0 193 154 347 347 347 192 0 347-154 347-347 0-192-154-347-347-347z" horiz-adv-x="1000" />

<glyph glyph-name="calendar" unicode="&#xe817;" d="M215-25h571c87 0 131 42 131 126v497c0 84-44 126-131 126h-571c-88 0-132-42-132-126v-497c0-84 44-126 132-126z m-7 66c-37 0-57 19-57 57v383c0 38 20 57 57 57h583c37 0 58-19 58-57v-383c0-38-21-57-58-57h-583z m211 351h24c15 0 20 4 20 18v24c0 15-5 19-20 19h-24c-15 0-20-4-20-19v-24c0-14 5-18 20-18z m139 0h24c15 0 20 4 20 18v24c0 15-5 19-20 19h-24c-15 0-20-4-20-19v-24c0-14 5-18 20-18z m138 0h25c15 0 20 4 20 18v24c0 15-5 19-20 19h-25c-14 0-19-4-19-19v-24c0-14 5-18 19-18z m-416-133h24c15 0 20 4 20 18v24c0 15-5 19-20 19h-24c-15 0-20-4-20-19v-24c0-14 5-18 20-18z m139 0h24c15 0 20 4 20 18v24c0 15-5 19-20 19h-24c-15 0-20-4-20-19v-24c0-14 5-18 20-18z m139 0h24c15 0 20 4 20 18v24c0 15-5 19-20 19h-24c-15 0-20-4-20-19v-24c0-14 5-18 20-18z m138 0h25c15 0 20 4 20 18v24c0 15-5 19-20 19h-25c-14 0-19-4-19-19v-24c0-14 5-18 19-18z m-416-133h24c15 0 20 4 20 18v24c0 15-5 19-20 19h-24c-15 0-20-4-20-19v-24c0-14 5-18 20-18z m139 0h24c15 0 20 4 20 18v24c0 15-5 19-20 19h-24c-15 0-20-4-20-19v-24c0-14 5-18 20-18z m139 0h24c15 0 20 4 20 18v24c0 15-5 19-20 19h-24c-15 0-20-4-20-19v-24c0-14 5-18 20-18z" horiz-adv-x="1000" />

<glyph glyph-name="curriculum_filled" unicode="&#xe818;" d="M281-67h481c16 0 30 13 30 30 0 13-9 24-21 28-47 19-57 79-10 125 14 14 31 32 31 69v424c0 77-39 116-115 116h-395c-77 0-115-39-115-116v-561c0-77 38-115 114-115z m3 60c-37 0-57 20-57 55 0 33 23 55 60 55h382c5 0 9 0 13 1-18-39-15-79 5-111h-403z m-11 166c-12 0-21 9-21 21v467c0 12 9 21 21 21 12 0 22-9 22-21v-467c0-12-10-21-22-21z" horiz-adv-x="1000" />

<glyph glyph-name="evaluation_filled" unicode="&#xe819;" d="M244 404c87 0 160 73 160 160 0 87-73 160-160 160-88 0-161-73-161-160 0-87 73-160 161-160z m-19 74c-8 0-13 4-19 11l-42 50c-3 4-4 8-4 14 0 11 8 19 18 19 7 0 12-3 17-9l29-37 66 106c5 7 10 11 17 11 10 0 19-8 19-18 0-5-1-9-5-15l-77-121c-5-7-11-11-19-11z m290 58h373c16 0 29 12 29 28 0 15-13 28-29 28h-373c-16 0-28-13-28-28 0-16 12-28 28-28z m0-429h373c16 0 29 12 29 28 0 16-13 28-29 28h-373c-16 0-28-12-28-28 0-16 12-28 28-28z m-271-132c87 0 160 72 160 159 0 88-73 161-160 161-88 0-161-73-161-161 0-87 73-159 161-159z m-19 74c-8 0-13 4-19 10l-42 51c-3 4-4 8-4 14 0 11 8 19 18 19 7 0 12-3 17-9l29-37 66 106c5 7 10 11 17 11 10 0 19-8 19-18 0-5-1-9-5-15l-77-121c-5-7-11-11-19-11z" horiz-adv-x="1000" />

<glyph glyph-name="attendance_filled" unicode="&#xe81a;" d="M588 313c-58 0-109-13-150-35 49-40 80-102 80-170 0-17-2-35-6-51h290c54 0 73 16 73 46 0 88-110 210-287 210z m0 62c74 0 137 65 137 151 0 85-64 148-137 148-73 0-136-64-136-149 0-85 63-150 136-150z m-290-442c94 0 173 79 173 175 0 95-78 174-173 174-95 0-173-79-173-174 0-96 78-175 173-175z m-21 81c-5 0-12 2-17 7l-57 64c-4 4-6 10-6 15 0 12 10 22 21 22 8 0 13-4 17-8l42-45 83 116c4 6 10 9 18 9 11 0 21-9 21-21 0-4-2-9-5-13l-98-138c-4-5-11-8-19-8z" horiz-adv-x="1000" />

<glyph glyph-name="students_filled" unicode="&#xe81b;" d="M461 17h461c58 0 78 16 78 48 0 94-118 224-309 224-190 0-308-130-308-224 0-32 20-48 78-48z m231 337c78 0 146 70 146 161 0 90-68 156-146 156-79 0-148-68-147-157 0-90 68-160 147-160z m-627-337h278c-38 55 8 165 88 226-41 27-94 47-162 47-166 0-269-121-269-222 0-33 18-51 65-51z m204 329c69 0 128 61 128 140 0 78-60 136-128 136-68 0-128-59-128-137 0-78 60-139 128-139z" horiz-adv-x="1000" />

<glyph glyph-name="report_filled" unicode="&#xe81c;" d="M364 517c-12 0-22 10-22 24 0 12 10 22 22 22h272c12 0 22-10 22-22 0-14-10-24-22-24h-272z m0-133c-12 0-22 10-22 24 0 13 10 23 22 23h272c12 0 22-10 22-23 0-14-10-24-22-24h-272z m0-133c-12 0-22 10-22 23 0 13 10 24 22 24h129c13 0 22-11 22-24 0-13-9-23-22-23h-129z m-156-202c0-77 36-115 108-115h368c72 0 108 38 108 115v560c0 77-36 116-108 116h-368c-72 0-108-39-108-116v-560z" horiz-adv-x="1000" />

<glyph glyph-name="students" unicode="&#xe81d;" d="M641-114h627c84 0 123 25 123 79 0 129-165 315-436 315-271 0-436-186-436-315 0-54 39-79 122-79z m-24 75c-13 0-18 3-18 13 0 81 127 232 356 232 229 0 356-151 356-232 0-10-6-13-19-13h-675z m338 380c119 0 216 105 216 232 0 126-96 225-216 225-119 0-216-101-216-226 1-127 97-231 216-231z m0 75c-73 0-135 69-135 156-1 85 61 151 135 151 75 0 136-65 136-150 0-87-62-157-136-157z m-854-530h393c-24 14-42 43-39 73h-366c-10 0-15 4-15 13 0 122 142 237 305 237 63 0 120-15 168-43 16 19 34 37 57 52-65 42-142 63-225 63-209 0-379-149-379-313 0-55 34-82 101-82z m279 452c103 0 187 91 187 202 0 110-83 198-187 198-103 0-188-90-188-199 0-111 85-201 188-201z m0 73c-62 0-113 57-113 128 0 70 51 125 113 125 63 0 113-54 113-124 0-72-52-129-113-129z" horiz-adv-x="1391" />

<glyph glyph-name="curriculum" unicode="&#xe81e;" d="M153-144h593c20 0 36 16 36 37 0 16-11 30-26 35-57 22-69 97-12 154 17 17 38 39 38 85v521c0 95-47 143-142 143h-485c-95 0-142-48-142-143v-691c0-94 47-141 140-141z m-66 263v568c0 45 24 71 71 71h479c47 0 71-26 71-71v-510c0-25-14-39-39-39h-508c-30 0-54-6-74-19z m70-189c-46 0-70 24-70 67 0 41 29 68 75 68h469c6 0 11 0 16 1-22-47-18-97 6-136h-496z m-17 169h60v676h-60v-676z" horiz-adv-x="808" />

<glyph glyph-name="report" unicode="&#xe81f;" d="M223 568h324c15 0 26 12 26 28 0 15-11 28-26 28h-324c-15 0-27-13-27-28 0-16 12-28 27-28z m0-159h324c15 0 26 13 26 28 0 16-11 28-26 28h-324c-15 0-27-12-27-28 0-15 12-28 27-28z m0-158h153c15 0 27 12 27 27 0 16-12 29-27 29h-153c-15 0-27-13-27-29 0-15 12-27 27-27z m-197-252c0-95 44-142 132-142h453c89 0 133 47 133 142v689c0 95-44 143-133 143h-453c-88 0-132-48-132-143v-689z m68 1v687c0 45 23 71 67 71h447c44 0 67-26 67-71v-687c0-45-23-70-67-70h-447c-44 0-67 25-67 70z" horiz-adv-x="769" />

<glyph glyph-name="evaluation" unicode="&#xe820;" d="M232 419c112 0 205 94 205 205 0 112-93 205-205 205-113 0-205-93-205-205 0-111 93-205 205-205z m0 69c-74 0-136 63-136 136 0 74 62 136 136 136 73 0 135-63 135-136 0-73-62-136-135-136z m0-618c112 0 205 93 205 205 0 112-93 205-205 205-113 0-205-93-205-205 0-112 93-205 205-205z m0 69c-74 0-136 63-136 136 0 73 62 135 136 135 73 0 135-62 135-135 0-73-62-136-135-136z m347 649h478c20 0 36 15 36 36 0 20-16 35-36 35h-478c-20 0-36-15-36-35 0-21 16-36 36-36z m0-549h478c20 0 36 16 36 36 0 20-16 36-36 36h-478c-20 0-36-16-36-36 0-20 16-36 36-36z" horiz-adv-x="1120" />

<glyph glyph-name="attendance" unicode="&#xe821;" d="M418-18h319c61 0 91 19 91 60 0 100-123 243-324 243-67 0-125-16-173-42 16-12 30-27 42-43 36 17 80 28 131 28 170 0 264-116 264-178 0-8-4-11-13-11h-328c-1-20-4-39-9-57z m86 350c88 0 160 80 160 178 0 97-71 173-160 173-88 0-160-78-160-174 1-97 72-177 160-177z m0 57c-54 0-100 53-100 120 0 66 45 117 100 117 56 0 101-50 101-116 0-67-46-121-101-121z m-316-534c102 0 188 87 188 193 0 105-84 192-188 192-103 0-188-87-188-192 0-106 85-193 188-193z m-22 89c-6 0-14 3-19 8l-62 70c-5 5-7 12-7 17 0 14 11 24 24 24 7 0 13-4 17-8l46-50 90 128c4 6 11 10 20 10 12 0 23-10 23-23 0-4-2-9-5-14l-108-153c-4-6-11-9-19-9z" horiz-adv-x="828" />
</font>
</defs>
</svg>
